<?xml version="1.0" encoding="UTF-8" standalone="no"?>
<!-- Created with Inkscape (http://www.inkscape.org/) -->

<svg
   xmlns:dc="http://purl.org/dc/elements/1.1/"
   xmlns:cc="http://creativecommons.org/ns#"
   xmlns:rdf="http://www.w3.org/1999/02/22-rdf-syntax-ns#"
   xmlns:svg="http://www.w3.org/2000/svg"
   xmlns="http://www.w3.org/2000/svg"
   xmlns:sodipodi="http://sodipodi.sourceforge.net/DTD/sodipodi-0.dtd"
   xmlns:inkscape="http://www.inkscape.org/namespaces/inkscape"
   width="512"
   height="137.65105"
   viewBox="0 0 512 137.65105"
   version="1.1"
   id="svg8"
   inkscape:version="0.92.3 (2405546, 2018-03-11)"
   sodipodi:docname="logo.svg"
   inkscape:export-filename="/home/tristan/Git/chemical-capitalism/assets/logo.png"
   inkscape:export-xdpi="96"
   inkscape:export-ydpi="96">
  <defs
     id="defs2" />
  <sodipodi:namedview
     id="base"
     pagecolor="#ffffff"
     bordercolor="#666666"
     borderopacity="1.0"
     inkscape:pageopacity="0.0"
     inkscape:pageshadow="2"
     inkscape:zoom="1"
     inkscape:cx="146.38571"
     inkscape:cy="29.33779"
     inkscape:document-units="px"
     inkscape:current-layer="layer1"
     showgrid="false"
     units="px"
     inkscape:window-width="1920"
     inkscape:window-height="1016"
     inkscape:window-x="0"
     inkscape:window-y="27"
     inkscape:window-maximized="1"
     fit-margin-top="0"
     fit-margin-left="0"
     fit-margin-right="0"
     fit-margin-bottom="0" />
  <metadata
     id="metadata5">
    <rdf:RDF>
      <cc:Work
         rdf:about="">
        <dc:format>image/svg+xml</dc:format>
        <dc:type
           rdf:resource="http://purl.org/dc/dcmitype/StillImage" />
        <dc:title></dc:title>
      </cc:Work>
    </rdf:RDF>
  </metadata>
  <g
     inkscape:label="Layer 1"
     inkscape:groupmode="layer"
     id="layer1"
     transform="translate(-170.77363,-445.63391)">
    <g
       id="g4816"
       transform="matrix(1.5038797,0,0,1.5038797,-415.61553,373.8973)">
      <g
         aria-label="Chemical Capitalism"
         style="font-style:normal;font-variant:normal;font-weight:500;font-stretch:normal;font-size:48px;line-height:80.00000119%;font-family:Montserrat;-inkscape-font-specification:'Montserrat Medium';font-variant-ligatures:normal;font-variant-position:normal;font-variant-caps:normal;font-variant-numeric:normal;font-variant-alternates:normal;font-feature-settings:normal;text-indent:0;text-align:start;text-decoration:none;text-decoration-line:none;text-decoration-style:solid;text-decoration-color:#000000;letter-spacing:normal;word-spacing:normal;text-transform:none;writing-mode:lr-tb;direction:ltr;text-orientation:mixed;dominant-baseline:auto;baseline-shift:baseline;text-anchor:start;white-space:normal;shape-padding:0;opacity:1;vector-effect:none;fill:#1a1a1a;fill-opacity:1;fill-rule:nonzero;stroke:none;stroke-width:16;stroke-linejoin:round;stroke-miterlimit:4;stroke-dasharray:none;stroke-dashoffset:0;stroke-opacity:1;paint-order:normal"
         id="text4772">
        <path
           d="m 503.81337,67.615653 q -1.776,-2.064 -4.224,-3.216 -2.4,-1.152 -4.896,-1.152 -3.12,0 -5.712,1.488 -2.592,1.488 -4.08,4.128 -1.488,2.592 -1.488,5.712 0,3.12 1.488,5.76 1.488,2.592 4.08,4.128 2.592,1.488 5.712,1.488 2.4,0 4.8,-1.056 2.448,-1.056 4.32,-2.928 l 3.792,4.224 q -2.64,2.688 -6.144,4.272 -3.504,1.536 -7.104,1.536 -4.848,0 -8.88,-2.304 -4.032,-2.304 -6.336,-6.24 -2.304,-3.984 -2.304,-8.784 0,-4.8 2.352,-8.736 2.352,-3.936 6.384,-6.192 4.08,-2.256 9.024,-2.256 3.6,0 7.056,1.44 3.456,1.44 5.904,3.984 z"
           style="font-style:normal;font-variant:normal;font-weight:500;font-stretch:normal;line-height:80.00000119%;font-family:Montserrat;-inkscape-font-specification:'Montserrat Medium';text-align:start;text-anchor:start;fill:#00d4aa"
           id="path4833"
           inkscape:connector-curvature="0" />
        <path
           d="m 528.35637,65.599653 q 4.416,0 6.96,2.688 2.544,2.64 2.544,7.2 v 16.032 h -6.288 v -14.208 q 0,-2.688 -1.536,-4.224 -1.536,-1.584 -4.176,-1.584 -3.12,0.048 -4.944,2.112 -1.824,2.064 -1.824,5.28 v 12.624 h -6.24 v -35.616 h 6.24 v 14.832 q 2.64,-5.04 9.264,-5.136 z"
           style="font-style:normal;font-variant:normal;font-weight:500;font-stretch:normal;line-height:80.00000119%;font-family:Montserrat;-inkscape-font-specification:'Montserrat Medium';text-align:start;text-anchor:start;fill:#00d4aa"
           id="path4835"
           inkscape:connector-curvature="0" />
        <path
           d="m 555.56637,65.647653 q 6.144,0 9.216,3.504 3.12,3.504 3.12,9.84 0,1.248 -0.048,1.872 h -18.96 q 0.624,2.736 2.544,4.32 1.968,1.536 4.8,1.536 1.968,0 3.744,-0.72 1.824,-0.768 3.168,-2.16 l 3.36,3.504 q -1.92,2.112 -4.704,3.264 -2.736,1.152 -6.096,1.152 -3.936,0 -6.96,-1.632 -2.976,-1.632 -4.608,-4.56 -1.632,-2.976 -1.632,-6.816 0,-3.84 1.632,-6.816 1.68,-2.976 4.656,-4.608 2.976,-1.68 6.768,-1.68 z m 6.624,11.04 q -0.096,-2.832 -1.872,-4.512 -1.776,-1.68 -4.704,-1.68 -2.736,0 -4.608,1.68 -1.824,1.632 -2.256,4.512 z"
           style="font-style:normal;font-variant:normal;font-weight:500;font-stretch:normal;line-height:80.00000119%;font-family:Montserrat;-inkscape-font-specification:'Montserrat Medium';text-align:start;text-anchor:start;fill:#00d4aa"
           id="path4837"
           inkscape:connector-curvature="0" />
        <path
           d="m 606.91662,65.599653 q 4.368,0 6.864,2.688 2.496,2.64 2.496,7.2 v 16.032 h -6.288 v -14.208 q 0,-2.736 -1.536,-4.272 -1.488,-1.584 -4.08,-1.584 -2.976,0.096 -4.752,2.16 -1.728,2.064 -1.728,5.232 v 12.672 h -6.288 v -14.208 q 0,-2.736 -1.488,-4.272 -1.488,-1.584 -4.08,-1.584 -3.024,0.096 -4.8,2.16 -1.728,2.064 -1.728,5.232 v 12.672 h -6.24 v -25.68 h 6.24 v 4.752 q 2.544,-4.896 9.024,-4.992 3.36,0 5.616,1.632 2.304,1.584 3.216,4.512 2.448,-6.048 9.552,-6.144 z"
           style="font-style:normal;font-variant:normal;font-weight:500;font-stretch:normal;line-height:80.00000119%;font-family:Montserrat;-inkscape-font-specification:'Montserrat Medium';text-align:start;text-anchor:start;fill:#00d4aa"
           id="path4839"
           inkscape:connector-curvature="0" />
        <path
           d="m 623.23737,65.839653 h 6.24 v 25.68 h -6.24 z m 3.072,-11.04 q 1.536,0 2.544,1.056 1.008,1.056 1.008,2.688 0,1.584 -1.008,2.64 -1.008,1.056 -2.544,1.056 -1.536,0 -2.544,-1.056 -1.008,-1.056 -1.008,-2.64 0,-1.632 1.008,-2.688 1.008,-1.056 2.544,-1.056 z"
           style="font-style:normal;font-variant:normal;font-weight:500;font-stretch:normal;line-height:80.00000119%;font-family:Montserrat;-inkscape-font-specification:'Montserrat Medium';text-align:start;text-anchor:start;fill:#00d4aa"
           id="path4841"
           inkscape:connector-curvature="0" />
        <path
           d="m 654.87012,73.951653 q -2.592,-2.832 -6.72,-2.832 -3.12,0 -5.088,2.112 -1.92,2.112 -1.92,5.472 0,3.456 1.92,5.568 1.968,2.112 5.088,2.112 4.608,0 6.912,-3.024 l 3.888,3.216 q -1.728,2.496 -4.56,3.84 -2.832,1.344 -6.576,1.344 -3.792,0 -6.768,-1.632 -2.928,-1.632 -4.56,-4.56 -1.632,-2.976 -1.632,-6.816 0,-3.888 1.632,-6.864 1.68,-2.976 4.608,-4.608 2.976,-1.632 6.816,-1.632 3.504,0 6.24,1.248 2.784,1.2 4.512,3.456 z"
           style="font-style:normal;font-variant:normal;font-weight:500;font-stretch:normal;line-height:80.00000119%;font-family:Montserrat;-inkscape-font-specification:'Montserrat Medium';text-align:start;text-anchor:start;fill:#00d4aa"
           id="path4843"
           inkscape:connector-curvature="0" />
        <path
           d="m 678.53037,91.519653 v -3.12 q -1.344,1.68 -3.456,2.544 -2.112,0.864 -4.848,0.864 -2.688,0 -4.752,-1.008 -2.016,-1.056 -3.12,-2.88 -1.104,-1.824 -1.104,-4.08 0,-3.6 2.544,-5.616 2.544,-2.064 7.2,-2.112 h 7.488 v -0.672 q 0,-2.256 -1.488,-3.504 -1.488,-1.248 -4.32,-1.248 -3.648,0 -7.632,2.4 l -2.256,-4.32 q 3.024,-1.68 5.472,-2.4 2.496,-0.768 5.808,-0.768 4.992,0 7.728,2.4 2.784,2.4 2.832,6.72 l 0.048,16.8 z m -6.816,-4.512 q 2.688,0 4.608,-1.248 1.92,-1.296 2.16,-3.168 v -2.304 h -6.48 q -2.496,0 -3.696,0.768 -1.152,0.72 -1.152,2.4 0,1.632 1.2,2.592 1.248,0.96 3.36,0.96 z"
           style="font-style:normal;font-variant:normal;font-weight:500;font-stretch:normal;line-height:80.00000119%;font-family:Montserrat;-inkscape-font-specification:'Montserrat Medium';text-align:start;text-anchor:start;fill:#00d4aa"
           id="path4845"
           inkscape:connector-curvature="0" />
        <path
           d="m 691.91487,55.903653 h 6.24 v 35.616 h -6.24 z"
           style="font-style:normal;font-variant:normal;font-weight:500;font-stretch:normal;line-height:80.00000119%;font-family:Montserrat;-inkscape-font-specification:'Montserrat Medium';text-align:start;text-anchor:start;fill:#00d4aa"
           id="path4847"
           inkscape:connector-curvature="0" />
        <path
           d="m 503.81337,106.01565 q -1.776,-2.064 -4.224,-3.216 -2.4,-1.152 -4.896,-1.152 -3.12,0 -5.712,1.488 -2.592,1.488 -4.08,4.128 -1.488,2.592 -1.488,5.712 0,3.12 1.488,5.76 1.488,2.592 4.08,4.128 2.592,1.488 5.712,1.488 2.4,0 4.8,-1.056 2.448,-1.056 4.32,-2.928 l 3.792,4.224 q -2.64,2.688 -6.144,4.272 -3.504,1.536 -7.104,1.536 -4.848,0 -8.88,-2.304 -4.032,-2.304 -6.336,-6.24 -2.304,-3.984 -2.304,-8.784 0,-4.8 2.352,-8.736 2.352,-3.936 6.384,-6.191996 4.08,-2.256 9.024,-2.256 3.6,0 7.056,1.44 3.456,1.44 5.904,3.983996 z"
           id="path4849"
           inkscape:connector-curvature="0" />
        <path
           d="m 527.68662,129.91965 v -3.12 q -1.344,1.68 -3.456,2.544 -2.112,0.864 -4.848,0.864 -2.688,0 -4.752,-1.008 -2.016,-1.056 -3.12,-2.88 -1.104,-1.824 -1.104,-4.08 0,-3.6 2.544,-5.616 2.544,-2.064 7.2,-2.112 h 7.488 v -0.672 q 0,-2.256 -1.488,-3.504 -1.488,-1.248 -4.32,-1.248 -3.648,0 -7.632,2.4 l -2.256,-4.32 q 3.024,-1.68 5.472,-2.4 2.496,-0.768 5.808,-0.768 4.992,0 7.728,2.4 2.784,2.4 2.832,6.72 l 0.048,16.8 z m -6.816,-4.512 q 2.688,0 4.608,-1.248 1.92,-1.296 2.16,-3.168 v -2.304 h -6.48 q -2.496,0 -3.696,0.768 -1.152,0.72 -1.152,2.4 0,1.632 1.2,2.592 1.248,0.96 3.36,0.96 z"
           id="path4851"
           inkscape:connector-curvature="0" />
        <path
           d="m 555.95112,104.04765 q 3.6,0 6.336,1.68 2.784,1.632 4.272,4.608 1.536,2.976 1.536,6.864 0,3.84 -1.488,6.768 -1.488,2.928 -4.224,4.56 -2.736,1.632 -6.336,1.632 -2.88,0 -5.088,-1.104 -2.208,-1.152 -3.648,-3.312 v 13.488 h -6.24 v -34.992 h 6.24 v 4.224 q 1.392,-2.16 3.552,-3.264 2.208,-1.152 5.088,-1.152 z m -1.392,20.736 q 3.168,0 5.184,-2.16 2.016,-2.208 2.016,-5.616 0,-3.408 -2.016,-5.568 -2.016,-2.16 -5.184,-2.16 -3.216,0 -5.232,2.16 -2.016,2.16 -2.016,5.568 0,3.456 2.016,5.616 2.016,2.16 5.232,2.16 z"
           id="path4853"
           inkscape:connector-curvature="0" />
        <path
           d="m 573.54987,104.23965 h 6.24 v 25.68 h -6.24 z m 3.072,-11.039996 q 1.536,0 2.544,1.056 1.008,1.056 1.008,2.688 0,1.584 -1.008,2.64 -1.008,1.055996 -2.544,1.055996 -1.536,0 -2.544,-1.055996 -1.008,-1.056 -1.008,-2.64 0,-1.632 1.008,-2.688 1.008,-1.056 2.544,-1.056 z"
           id="path4855"
           inkscape:connector-curvature="0" />
        <path
           d="m 602.54262,128.33565 q -3.072,1.872 -6.432,1.872 -3.312,0 -5.424,-1.92 -2.112,-1.968 -2.112,-5.76 v -12.672 h -3.6 l -0.048,-4.56 h 3.648 v -7.055996 h 6.192 v 7.055996 h 7.344 v 4.56 h -7.344 v 11.568 q 0,1.776 0.672,2.544 0.672,0.72 2.016,0.72 1.44,0 3.648,-1.056 z"
           id="path4857"
           inkscape:connector-curvature="0" />
        <path
           d="m 622.56162,129.91965 v -3.12 q -1.344,1.68 -3.456,2.544 -2.112,0.864 -4.848,0.864 -2.688,0 -4.752,-1.008 -2.016,-1.056 -3.12,-2.88 -1.104,-1.824 -1.104,-4.08 0,-3.6 2.544,-5.616 2.544,-2.064 7.2,-2.112 h 7.488 v -0.672 q 0,-2.256 -1.488,-3.504 -1.488,-1.248 -4.32,-1.248 -3.648,0 -7.632,2.4 l -2.256,-4.32 q 3.024,-1.68 5.472,-2.4 2.496,-0.768 5.808,-0.768 4.992,0 7.728,2.4 2.784,2.4 2.832,6.72 l 0.048,16.8 z m -6.816,-4.512 q 2.688,0 4.608,-1.248 1.92,-1.296 2.16,-3.168 v -2.304 h -6.48 q -2.496,0 -3.696,0.768 -1.152,0.72 -1.152,2.4 0,1.632 1.2,2.592 1.248,0.96 3.36,0.96 z"
           id="path4859"
           inkscape:connector-curvature="0" />
        <path
           d="m 635.94612,94.303654 h 6.24 v 35.615996 h -6.24 z"
           id="path4861"
           inkscape:connector-curvature="0" />
        <path
           d="m 650.23737,104.23965 h 6.24 v 25.68 h -6.24 z m 3.072,-11.039996 q 1.536,0 2.544,1.056 1.008,1.056 1.008,2.688 0,1.584 -1.008,2.64 -1.008,1.055996 -2.544,1.055996 -1.536,0 -2.544,-1.055996 -1.008,-1.056 -1.008,-2.64 0,-1.632 1.008,-2.688 1.008,-1.056 2.544,-1.056 z"
           id="path4863"
           inkscape:connector-curvature="0" />
        <path
           d="m 679.42212,111.19965 q -1.872,-1.104 -3.888,-1.728 -1.968,-0.624 -3.648,-0.624 -1.584,0 -2.544,0.576 -0.912,0.528 -0.912,1.68 0,1.2 1.152,1.872 1.2,0.624 3.744,1.344 2.688,0.816 4.416,1.632 1.728,0.768 2.976,2.352 1.296,1.536 1.296,4.08 0,3.744 -2.88,5.76 -2.88,2.016 -7.248,2.016 -2.976,0 -5.808,-0.912 -2.832,-0.96 -4.8,-2.688 l 2.16,-4.368 q 1.728,1.488 4.128,2.352 2.4,0.816 4.56,0.816 1.728,0 2.736,-0.576 1.056,-0.624 1.056,-1.824 0,-1.344 -1.2,-2.016 -1.2,-0.672 -3.888,-1.488 -2.592,-0.768 -4.224,-1.488 -1.632,-0.768 -2.832,-2.256 -1.2,-1.536 -1.2,-3.984 0,-3.792 2.736,-5.76 2.784,-2.016 6.96,-2.016 2.544,0 4.992,0.72 2.496,0.72 4.416,2.016 z"
           id="path4865"
           inkscape:connector-curvature="0" />
        <path
           d="m 721.01037,103.99965 q 4.368,0 6.864,2.688 2.496,2.64 2.496,7.2 v 16.032 h -6.288 v -14.208 q 0,-2.736 -1.536,-4.272 -1.488,-1.584 -4.08,-1.584 -2.976,0.096 -4.752,2.16 -1.728,2.064 -1.728,5.232 v 12.672 h -6.288 v -14.208 q 0,-2.736 -1.488,-4.272 -1.488,-1.584 -4.08,-1.584 -3.024,0.096 -4.8,2.16 -1.728,2.064 -1.728,5.232 v 12.672 h -6.24 v -25.68 h 6.24 v 4.752 q 2.544,-4.896 9.024,-4.992 3.36,0 5.616,1.632 2.304,1.584 3.216,4.512 2.448,-6.048 9.552,-6.144 z"
           id="path4867"
           inkscape:connector-curvature="0" />
      </g>
      <path
         d="m 429.85281,50.700985 36.93522,21.324557 0,42.649108 -36.93522,21.32456 -36.93521,-21.32456 0,-42.64911 z"
         inkscape:randomized="0"
         inkscape:rounded="0"
         inkscape:flatsided="true"
         sodipodi:arg2="-1.0471976"
         sodipodi:arg1="-1.5707963"
         sodipodi:r2="36.935215"
         sodipodi:r1="42.649113"
         sodipodi:cy="93.350098"
         sodipodi:cx="429.85281"
         sodipodi:sides="6"
         id="path4782"
         style="opacity:1;vector-effect:none;fill:none;fill-opacity:1;fill-rule:nonzero;stroke:#00d4aa;stroke-width:6;stroke-linejoin:round;stroke-miterlimit:4;stroke-dasharray:none;stroke-dashoffset:0;stroke-opacity:1;paint-order:normal"
         sodipodi:type="star" />
      <circle
         transform="rotate(-4.4503881)"
         r="27.548719"
         cy="126.42343"
         cx="421.31317"
         id="path4784"
         style="opacity:1;vector-effect:none;fill:none;fill-opacity:1;fill-rule:nonzero;stroke:#00d4aa;stroke-width:4.30999994;stroke-linejoin:round;stroke-miterlimit:4;stroke-dasharray:4.31, 4.31;stroke-dashoffset:0;stroke-opacity:1;paint-order:normal" />
      <g
         aria-label="$"
         style="font-style:normal;font-variant:normal;font-weight:500;font-stretch:normal;font-size:63.05446243px;line-height:89.99999762%;font-family:Montserrat;-inkscape-font-specification:'Montserrat Medium';font-variant-ligatures:normal;font-variant-position:normal;font-variant-caps:normal;font-variant-numeric:normal;font-variant-alternates:normal;font-feature-settings:normal;text-indent:0;text-align:start;text-decoration:none;text-decoration-line:none;text-decoration-style:solid;text-decoration-color:#000000;letter-spacing:normal;word-spacing:normal;text-transform:none;writing-mode:lr-tb;direction:ltr;text-orientation:mixed;dominant-baseline:auto;baseline-shift:baseline;text-anchor:start;white-space:normal;shape-padding:0;opacity:1;vector-effect:none;fill:#000000;fill-opacity:1;fill-rule:nonzero;stroke:none;stroke-width:7.8818078;stroke-linejoin:round;stroke-miterlimit:4;stroke-dasharray:7.88180781, 7.88180781;stroke-dashoffset:0;stroke-opacity:1;paint-order:normal"
         id="text4788">
        <path
           d="m 422.73873,82.378628 q 0,1.82858 1.19804,3.089669 1.26109,1.198035 3.08966,2.017743 1.89164,0.756653 5.10742,1.70247 4.47686,1.324144 7.31431,2.648288 2.90051,1.324144 4.91825,3.909376 2.01774,2.585233 2.01774,6.809886 0,5.35963 -3.72021,8.82762 -3.72021,3.40494 -9.83649,4.1616 v 8.82762 h -6.2424 v -8.76457 q -4.41381,-0.50444 -8.5754,-2.33301 -4.09854,-1.82858 -7.18821,-4.60298 l 3.53105,-7.18821 q 3.34188,3.08967 7.50348,4.85519 4.16159,1.76553 7.7557,1.76553 3.53105,0 5.54879,-1.32414 2.01774,-1.3872 2.01774,-3.72022 0,-1.89163 -1.26109,-3.089667 -1.19803,-1.261089 -3.08966,-2.017742 -1.89164,-0.756654 -5.17047,-1.702471 -4.47687,-1.324144 -7.31432,-2.585233 -2.83745,-1.261089 -4.85519,-3.783268 -2.01774,-2.585233 -2.01774,-6.746827 0,-5.044357 3.53105,-8.386244 3.53105,-3.341886 9.58427,-4.161594 v -8.19708 l 6.2424,-0.06305 v 8.19708 q 3.5941,0.378327 6.99904,1.576362 3.40494,1.198035 6.11628,2.96356 l -3.40494,7.377372 q -3.40494,-2.080797 -6.99904,-3.215778 -3.53105,-1.13498 -6.24239,-1.13498 -3.02662,0 -4.79214,1.13498 -1.76553,1.134981 -1.76553,3.152723 z"
           style="font-style:normal;font-variant:normal;font-weight:500;font-stretch:normal;font-family:Montserrat;-inkscape-font-specification:'Montserrat Medium';stroke-width:7.8818078"
           id="path4818"
           inkscape:connector-curvature="0" />
      </g>
    </g>
  </g>
</svg>
